<?xml version="1.0" encoding="utf-8"?>
<!-- Generator: Adobe Illustrator 23.0.0, SVG Export Plug-In . SVG Version: 6.00 Build 0)  -->
<svg version="1.1" id="Capa_1" xmlns="http://www.w3.org/2000/svg" xmlns:xlink="http://www.w3.org/1999/xlink" x="0px" y="0px"
	 viewBox="0 0 360 360" style="enable-background:new 0 0 360 360;" xml:space="preserve">
<style type="text/css">
	.st0{fill:#020203;}
	.st1{fill:#A09259;}
	.st2{fill:#020203;stroke:#020203;stroke-width:2;}
	.st3{fill:#020203;stroke:#020203;stroke-width:2;stroke-linecap:square;stroke-linejoin:round;}
</style>
<g>
	<g>
		<path class="st0" d="M101.21,203.13c0,0,0,0,16.72,2.41c-9.66,6.12-30.44,14.75-46.91,8.96c-17.99-6.32-18.29-27.44-1.83-51.82
			c16.49-24.42,52.97-35.87,70.84-35.23c17.87,0.63,39.31,4.31,40.17,33.22c0,0,6.2-39.99-46.44-39.79
			c-54.83,0.2-109.2,54.9-96.16,88.23c10.79,27.58,71.56,21.34,100.53-16.4L101.21,203.13z"/>
		<path class="st1" d="M109.21,156.87c0,0,0,0-16.72-2.41c9.66-6.12,30.44-14.75,46.91-8.96c17.99,6.32,18.29,27.44,1.83,51.82
			c-16.49,24.42-52.97,35.87-70.84,35.23c-17.87-0.63-39.31-4.31-40.17-33.22c0,0-6.2,39.99,46.44,39.79
			c54.83-0.2,109.2-54.9,96.16-88.23c-10.79-27.58-71.56-21.34-100.53,16.4L109.21,156.87z"/>
		<g>
			<path class="st2" d="M82.01,170.24h10.57l-0.52,3.45h-6.53L84.89,178h6.2l-0.55,3.49h-6.17l-0.72,4.8h6.33l-0.52,3.46H79.05
				L82.01,170.24z"/>
			<path class="st2" d="M108.98,172.31l-2.17,2.84c-0.74-0.53-1.36-0.92-1.85-1.19c-0.49-0.27-0.98-0.4-1.46-0.4
				c-0.74,0-1.35,0.22-1.82,0.65c-0.47,0.43-0.71,0.98-0.71,1.64c0,0.58,0.26,1.09,0.77,1.53c0.51,0.44,1.38,0.92,2.62,1.46
				c0.99,0.62,1.67,1.1,2.04,1.43c0.37,0.33,0.71,0.83,1.03,1.49c0.32,0.66,0.48,1.38,0.48,2.16c0,1.69-0.63,3.12-1.9,4.31
				c-1.26,1.18-2.79,1.78-4.59,1.78c-2.15,0-4.22-0.84-6.21-2.53l2.29-2.82c0.52,0.36,1.11,0.75,1.77,1.18
				c0.66,0.43,1.32,0.65,1.98,0.65c0.71,0,1.32-0.24,1.83-0.71c0.51-0.47,0.76-1.04,0.76-1.7c0-0.6-0.25-1.13-0.75-1.59
				c-0.5-0.46-1.25-0.89-2.25-1.31c-1-0.42-1.71-0.78-2.13-1.1c-0.42-0.32-0.84-0.82-1.26-1.51c-0.42-0.69-0.63-1.54-0.63-2.56
				c0-1.73,0.63-3.17,1.9-4.31c1.26-1.14,2.86-1.71,4.79-1.71C105.44,169.97,107.27,170.75,108.98,172.31z"/>
			<path class="st2" d="M116.23,170.24h3.7c2.47,0,4.35,0.5,5.64,1.51c1.29,1.01,1.94,2.46,1.94,4.36c0,1.5-0.35,2.82-1.05,3.96
				c-0.7,1.14-1.88,1.91-3.53,2.28l3.8,7.41h-4.08l-3.62-7.06h-0.61l-1.04,7.06h-4.04L116.23,170.24z M119.75,173.69l-0.81,5.52
				l0.82,0.03c1.02,0,1.89-0.28,2.6-0.85c0.71-0.57,1.06-1.26,1.06-2.07c0-0.92-0.3-1.59-0.89-2
				C121.92,173.91,121,173.7,119.75,173.69z"/>
		</g>
	</g>
	<g>
		<g>
			<path class="st3" d="M187.37,149.03h8.81l-0.43,2.87h-5.44l-0.54,3.59h5.16l-0.46,2.91h-5.14l-0.6,4H194l-0.43,2.89h-8.66
				L187.37,149.03z"/>
			<path class="st0" d="M200.18,149.03h3.09l1.68,9.14l4.58-9.14h3.12v16.27h-3.01v-9.72l-4.95,9.72h-1.57l-1.83-10.13l-3.43,10.13
				h-3.19L200.18,149.03z"/>
			<path class="st0" d="M216.6,149.03h3.38c4.07,0,6.11,1.72,6.11,5.15c0,0.9-0.2,1.74-0.61,2.52c-0.4,0.78-0.92,1.36-1.54,1.77
				c-0.62,0.4-1.26,0.65-1.92,0.75c-0.66,0.1-1.84,0.16-3.54,0.17l-0.87,5.91h-3.37L216.6,149.03z M219.59,151.9l-0.7,4.57h0.91
				c0.8,0,1.47-0.24,2.01-0.72c0.54-0.48,0.81-1.06,0.81-1.75c0-0.59-0.22-1.09-0.67-1.5c-0.45-0.4-1-0.61-1.65-0.61H219.59z"/>
			<path class="st0" d="M229.4,149.03h3.08c2.06,0,3.62,0.42,4.7,1.26c1.08,0.84,1.62,2.05,1.62,3.64c0,1.25-0.29,2.35-0.88,3.3
				c-0.59,0.95-1.57,1.59-2.94,1.9l3.17,6.17h-3.4l-3.02-5.88h-0.51l-0.87,5.88h-3.37L229.4,149.03z M232.33,151.9l-0.68,4.6
				l0.68,0.02c0.85,0,1.57-0.24,2.16-0.71c0.59-0.47,0.89-1.05,0.89-1.73c0-0.77-0.25-1.33-0.74-1.66
				C234.14,152.09,233.37,151.91,232.33,151.9z"/>
			<path class="st0" d="M242.6,149.03h8.81l-0.43,2.87h-5.44L245,155.5h5.16l-0.46,2.91h-5.14l-0.6,4h5.27l-0.43,2.89h-8.66
				L242.6,149.03z"/>
			<path class="st0" d="M261.78,150.75l-1.81,2.37c-0.62-0.44-1.13-0.77-1.54-0.99c-0.41-0.22-0.82-0.33-1.22-0.33
				c-0.62,0-1.13,0.18-1.52,0.54c-0.39,0.36-0.59,0.81-0.59,1.37c0,0.49,0.21,0.91,0.64,1.28c0.43,0.36,1.15,0.77,2.19,1.22
				c0.83,0.52,1.39,0.92,1.7,1.2c0.31,0.28,0.59,0.69,0.86,1.24c0.27,0.55,0.4,1.15,0.4,1.8c0,1.4-0.53,2.6-1.58,3.59
				c-1.05,0.99-2.33,1.48-3.82,1.48c-1.79,0-3.52-0.7-5.18-2.11l1.91-2.35c0.43,0.3,0.92,0.63,1.47,0.98
				c0.55,0.36,1.1,0.54,1.65,0.54c0.59,0,1.1-0.2,1.52-0.59c0.42-0.39,0.63-0.87,0.63-1.42c0-0.5-0.21-0.95-0.63-1.33
				c-0.42-0.38-1.04-0.74-1.88-1.09c-0.83-0.35-1.43-0.65-1.78-0.92c-0.35-0.26-0.7-0.68-1.05-1.26c-0.35-0.57-0.53-1.29-0.53-2.14
				c0-1.45,0.53-2.64,1.58-3.59c1.05-0.95,2.39-1.42,4-1.42C258.83,148.81,260.35,149.46,261.78,150.75z"/>
			<path class="st0" d="M269.88,149.03h2.33l4.14,16.27h-3.15l-0.82-3.27h-6.03l-1.76,3.27h-3.46L269.88,149.03z M270.46,154.38
				l-2.58,4.79h3.78L270.46,154.38z"/>
		</g>
		<g>
			<path class="st3" d="M187.32,194.7h3.09c2.06,0,3.62,0.42,4.7,1.26c1.08,0.84,1.62,2.05,1.62,3.64c0,1.25-0.29,2.35-0.88,3.3
				c-0.59,0.95-1.57,1.59-2.94,1.9l3.17,6.17h-3.4l-3.02-5.88h-0.51l-0.87,5.88h-3.37L187.32,194.7z M190.25,197.58l-0.68,4.6
				l0.68,0.02c0.85,0,1.57-0.24,2.16-0.71c0.59-0.47,0.89-1.05,0.89-1.73c0-0.77-0.25-1.33-0.74-1.66
				C192.06,197.76,191.3,197.59,190.25,197.58z"/>
			<path class="st0" d="M200.53,194.7h8.81l-0.43,2.87h-5.44l-0.54,3.59h5.16l-0.46,2.91h-5.14l-0.6,4h5.27l-0.43,2.89h-8.66
				L200.53,194.7z"/>
			<path class="st0" d="M219.71,196.42l-1.81,2.37c-0.62-0.44-1.13-0.77-1.54-0.99c-0.41-0.22-0.82-0.33-1.22-0.33
				c-0.62,0-1.13,0.18-1.52,0.54c-0.39,0.36-0.59,0.81-0.59,1.37c0,0.49,0.21,0.91,0.64,1.28c0.42,0.36,1.15,0.77,2.19,1.22
				c0.83,0.52,1.39,0.92,1.7,1.2c0.31,0.28,0.59,0.69,0.86,1.24c0.27,0.55,0.4,1.15,0.4,1.8c0,1.4-0.53,2.6-1.58,3.59
				c-1.05,0.99-2.33,1.48-3.82,1.48c-1.79,0-3.52-0.7-5.18-2.11l1.91-2.35c0.43,0.3,0.92,0.63,1.47,0.99
				c0.55,0.36,1.1,0.54,1.65,0.54c0.59,0,1.1-0.2,1.52-0.59c0.42-0.39,0.63-0.86,0.63-1.42c0-0.5-0.21-0.95-0.63-1.33
				c-0.42-0.38-1.04-0.74-1.88-1.09c-0.83-0.35-1.43-0.65-1.78-0.92c-0.35-0.26-0.7-0.68-1.05-1.26c-0.35-0.57-0.53-1.29-0.53-2.14
				c0-1.45,0.53-2.64,1.58-3.59c1.05-0.95,2.38-1.42,4-1.42C216.76,194.48,218.28,195.13,219.71,196.42z"/>
			<path class="st0" d="M221.8,194.7h3.38c4.07,0,6.11,1.72,6.11,5.15c0,0.9-0.2,1.74-0.61,2.51c-0.41,0.78-0.92,1.36-1.54,1.77
				c-0.62,0.4-1.26,0.65-1.92,0.75c-0.66,0.1-1.84,0.16-3.54,0.17l-0.87,5.91h-3.37L221.8,194.7z M224.79,197.58l-0.7,4.57H225
				c0.8,0,1.47-0.24,2.02-0.72c0.54-0.48,0.81-1.06,0.81-1.75c0-0.59-0.22-1.09-0.67-1.49c-0.45-0.4-1-0.6-1.65-0.6H224.79z"/>
			<path class="st0" d="M241.67,194.45c2.48,0,4.39,0.71,5.73,2.12c1.34,1.41,2.01,3.38,2.01,5.9c0,2.6-0.84,4.71-2.51,6.32
				c-1.68,1.61-3.86,2.41-6.55,2.4c-2.39-0.01-4.27-0.73-5.64-2.16c-1.38-1.43-2.06-3.38-2.06-5.85c0-2.5,0.84-4.58,2.53-6.24
				C236.86,195.28,239.02,194.45,241.67,194.45z M246.06,202.52c0-1.54-0.43-2.78-1.29-3.73c-0.86-0.95-2-1.42-3.4-1.42
				c-1.45,0-2.7,0.57-3.76,1.7c-1.06,1.14-1.59,2.49-1.59,4.06c0,1.5,0.44,2.74,1.31,3.7c0.87,0.97,1.98,1.45,3.34,1.45
				c1.48,0,2.75-0.57,3.81-1.7C245.53,205.45,246.06,204.1,246.06,202.52z"/>
			<path class="st0" d="M253.07,194.7h3.44l5.21,10.89l1.6-10.89h3.33l-2.39,16.27h-3.13l-5.45-11.29l-1.65,11.29h-3.36
				L253.07,194.7z"/>
			<path class="st0" d="M277.58,196.42l-1.81,2.37c-0.62-0.44-1.13-0.77-1.54-0.99c-0.41-0.22-0.82-0.33-1.22-0.33
				c-0.62,0-1.13,0.18-1.52,0.54c-0.39,0.36-0.59,0.81-0.59,1.37c0,0.49,0.21,0.91,0.64,1.28c0.42,0.36,1.15,0.77,2.19,1.22
				c0.83,0.52,1.39,0.92,1.7,1.2c0.31,0.28,0.59,0.69,0.86,1.24c0.27,0.55,0.4,1.15,0.4,1.8c0,1.4-0.53,2.6-1.58,3.59
				c-1.05,0.99-2.33,1.48-3.82,1.48c-1.79,0-3.52-0.7-5.18-2.11l1.91-2.35c0.43,0.3,0.92,0.63,1.47,0.99
				c0.55,0.36,1.1,0.54,1.65,0.54c0.59,0,1.1-0.2,1.52-0.59c0.42-0.39,0.63-0.86,0.63-1.42c0-0.5-0.21-0.95-0.63-1.33
				c-0.42-0.38-1.04-0.74-1.88-1.09c-0.83-0.35-1.43-0.65-1.78-0.92c-0.35-0.26-0.7-0.68-1.05-1.26c-0.35-0.57-0.53-1.29-0.53-2.14
				c0-1.45,0.53-2.64,1.58-3.59c1.05-0.95,2.38-1.42,4-1.42C274.63,194.48,276.15,195.13,277.58,196.42z"/>
			<path class="st0" d="M285.67,194.7h2.33l4.14,16.27H289l-0.82-3.27h-6.03l-1.76,3.27h-3.46L285.67,194.7z M286.26,200.06
				l-2.58,4.79h3.78L286.26,200.06z"/>
			<path class="st0" d="M296.16,194.7h3.85c3.72,0,5.59,1.39,5.59,4.16c0,1.53-0.77,2.79-2.3,3.78c1.67,0.78,2.5,2.02,2.5,3.71
				c0,1.45-0.61,2.59-1.83,3.4c-1.22,0.81-2.93,1.22-5.15,1.22h-5.13L296.16,194.7z M298.15,203.85l-0.66,4.44h1.67
				c1,0,1.81-0.2,2.42-0.6c0.62-0.4,0.92-0.92,0.92-1.56c0-0.64-0.29-1.18-0.86-1.62c-0.57-0.44-1.28-0.66-2.11-0.66H298.15z
				 M299.11,197.39l-0.58,3.89h1.26c0.8,0,1.46-0.18,1.98-0.54c0.52-0.36,0.78-0.82,0.78-1.36c0-0.6-0.22-1.08-0.67-1.44
				c-0.45-0.36-1.05-0.54-1.82-0.54H299.11z"/>
			<path class="st0" d="M309.61,194.7h3.34l-1.94,13.38h5.38l-0.41,2.89h-8.76L309.61,194.7z"/>
			<path class="st0" d="M320.46,194.7h8.81l-0.43,2.87h-5.44l-0.54,3.59h5.16l-0.46,2.91h-5.14l-0.6,4h5.27l-0.43,2.89h-8.66
				L320.46,194.7z"/>
		</g>
		<g>
			<path class="st3" d="M196.38,173.17l-1.81,2.37c-0.62-0.44-1.13-0.77-1.54-0.99c-0.41-0.22-0.82-0.33-1.22-0.33
				c-0.62,0-1.13,0.18-1.52,0.54c-0.39,0.36-0.59,0.81-0.59,1.37c0,0.49,0.21,0.91,0.64,1.28c0.43,0.36,1.15,0.77,2.19,1.22
				c0.83,0.52,1.39,0.92,1.7,1.2c0.31,0.28,0.59,0.69,0.86,1.24c0.27,0.55,0.4,1.15,0.4,1.8c0,1.4-0.53,2.6-1.58,3.59
				c-1.05,0.99-2.33,1.48-3.82,1.48c-1.79,0-3.52-0.7-5.18-2.11l1.91-2.35c0.43,0.3,0.92,0.63,1.47,0.99
				c0.55,0.36,1.1,0.54,1.65,0.54c0.59,0,1.1-0.2,1.52-0.59c0.42-0.39,0.63-0.87,0.63-1.42c0-0.5-0.21-0.95-0.63-1.33
				c-0.42-0.38-1.04-0.74-1.88-1.09c-0.84-0.35-1.43-0.65-1.78-0.92c-0.35-0.26-0.7-0.68-1.05-1.26c-0.35-0.57-0.53-1.29-0.53-2.14
				c0-1.45,0.53-2.64,1.58-3.59c1.05-0.95,2.39-1.42,4-1.42C193.43,171.22,194.95,171.87,196.38,173.17z"/>
			<path class="st0" d="M206.19,171.2c2.48,0,4.39,0.71,5.73,2.12c1.34,1.41,2.01,3.38,2.01,5.9c0,2.6-0.84,4.71-2.51,6.32
				c-1.68,1.61-3.86,2.41-6.55,2.4c-2.39-0.01-4.27-0.73-5.64-2.16c-1.38-1.43-2.06-3.38-2.06-5.85c0-2.5,0.84-4.58,2.53-6.24
				C201.37,172.02,203.54,171.2,206.19,171.2z M210.58,179.26c0-1.54-0.43-2.78-1.29-3.73c-0.86-0.95-2-1.42-3.4-1.42
				c-1.45,0-2.7,0.57-3.76,1.7c-1.06,1.14-1.59,2.49-1.59,4.06c0,1.5,0.44,2.74,1.31,3.7c0.87,0.97,1.98,1.45,3.34,1.45
				c1.48,0,2.75-0.57,3.81-1.7C210.05,182.19,210.58,180.84,210.58,179.26z"/>
			<path class="st0" d="M229.57,172.56l-0.43,2.97c-1.08-0.9-2.34-1.35-3.78-1.35c-1.62,0-3.04,0.59-4.25,1.78
				c-1.21,1.19-1.82,2.57-1.82,4.14c0,1.4,0.44,2.55,1.31,3.43c0.87,0.88,2,1.32,3.39,1.32c1.27,0,2.64-0.4,4.11-1.2l-0.48,3.31
				c-1.34,0.69-2.7,1.04-4.09,1.04c-2.41,0-4.3-0.76-5.66-2.28c-1.36-1.52-2.04-3.32-2.04-5.41c0-2.78,0.91-4.99,2.74-6.63
				c1.83-1.65,3.83-2.47,6.01-2.47C226.56,171.2,228.22,171.65,229.57,172.56z"/>
			<path class="st0" d="M231.85,171.44h3.34l-2.4,16.27h-3.36L231.85,171.44z"/>
			<path class="st0" d="M243.33,171.44h2.33l4.14,16.27h-3.15l-0.82-3.27h-6.03l-1.76,3.27h-3.46L243.33,171.44z M243.91,176.8
				l-2.58,4.79h3.78L243.91,176.8z"/>
			<path class="st0" d="M253.79,171.44h3.34l-1.94,13.38h5.38l-0.41,2.89h-8.76L253.79,171.44z"/>
			<path class="st0" d="M266.63,171.44h3.09l1.68,9.14l4.58-9.14h3.12v16.27h-3.01v-9.72l-4.95,9.72h-1.57l-1.83-10.13l-3.43,10.13
				h-3.19L266.63,171.44z"/>
			<path class="st0" d="M283.43,171.44h8.81l-0.43,2.87h-5.44l-0.54,3.59h5.16l-0.46,2.91h-5.14l-0.6,4h5.27l-0.43,2.89h-8.66
				L283.43,171.44z"/>
			<path class="st0" d="M294.21,171.44h3.44l5.21,10.89l1.6-10.89h3.33l-2.39,16.27h-3.13l-5.45-11.29l-1.65,11.29h-3.36
				L294.21,171.44z"/>
			<path class="st0" d="M309.45,171.44h9.97l-0.43,2.87h-3.32l-1.96,13.39h-3.32l1.93-13.39h-3.27L309.45,171.44z"/>
			<path class="st0" d="M321.19,171.44H330l-0.43,2.87h-5.44l-0.54,3.59h5.16l-0.46,2.91h-5.14l-0.6,4h5.27l-0.43,2.89h-8.66
				L321.19,171.44z"/>
		</g>
	</g>
</g>
</svg>
