<?xml version="1.0" encoding="utf-8"?>
<!-- Generator: Adobe Illustrator 15.0.0, SVG Export Plug-In . SVG Version: 6.00 Build 0)  -->
<!DOCTYPE svg PUBLIC "-//W3C//DTD SVG 1.1//EN" "http://www.w3.org/Graphics/SVG/1.1/DTD/svg11.dtd">
<svg version="1.1" xmlns="http://www.w3.org/2000/svg" xmlns:xlink="http://www.w3.org/1999/xlink" x="0px" y="0px" width="612px"
	 height="792px" viewBox="0 0 612 792" enable-background="new 0 0 612 792" xml:space="preserve">
<g id="Capa_1" display="none">
	<title>forta</title>
	
		<image display="inline" overflow="visible" width="1667" height="1136" xlink:href="costos.png"  transform="matrix(0.48 0 0 0.48 -94.0466 123.3826)">
	</image>
</g>
<g id="Capa_2">
	<g>
		<g>
			<path fill="#41DAC5" d="M582.356,518.509H537.18c5.271-5.282,8.545-12.562,8.545-20.566v-1.767
				c0-16.03-13.115-29.144-29.146-29.144H505.12c-12.109-3.871-20.881-15.208-20.881-28.6c0-16.583,13.443-30.028,30.027-30.028
				h40.376c16.028,0,29.144-13.116,29.144-29.144v-1.767c0-16.03-13.115-29.145-29.144-29.145h-11.778
				c-16.583,0-30.028-13.445-30.028-30.03c0-16.583,13.445-30.027,30.028-30.027h5.174c16.029,0,29.146-13.115,29.146-29.145v-1.766
				c0-16.03-13.116-29.146-29.146-29.146H537.18c-13.403-2.888-23.414-14.285-23.414-27.915c0-15.812,13.469-28.63,30.085-28.63
				h23.797c15.747,0,28.63-12.882,28.63-28.629c0-15.747-12.883-28.629-28.63-28.629H77.63c-15.747,0-28.629,12.882-28.629,28.629
				c0,15.747,12.882,28.629,28.629,28.629h40.72c16.616,0,30.087,12.818,30.087,28.63c0,13.63-10.013,25.027-23.417,27.915H60.104
				c-16.031,0-29.146,13.115-29.146,29.146v1.766c0,16.03,13.115,29.145,29.146,29.145h58.079c16.583,0,30.028,13.445,30.028,30.027
				c0,16.585-13.445,30.03-30.028,30.03H66.706c-16.029,0-29.145,13.114-29.145,29.145v1.767c0,16.028,13.116,29.144,29.145,29.144
				h22.878c16.583,0,30.028,13.445,30.028,30.028c0,13.392-8.772,24.729-20.881,28.6H28.646c-16.032,0-29.146,13.113-29.146,29.144
				v1.767c0,16.029,13.114,29.146,29.146,29.146h45.175c-5.271,5.28-8.545,12.558-8.545,20.565v1.766
				c0,16.029,13.116,29.146,29.145,29.146h-1.62c16.585,0,30.029,13.443,30.029,30.027v0.001c0,16.585-13.444,30.027-30.029,30.027
				h45.759h333.167h45.758c-16.584,0-30.027-13.442-30.027-30.027v-0.001c0-16.584,13.443-30.027,30.027-30.027h64.871
				c16.03,0,29.145-13.116,29.145-29.146v-1.766C611.5,531.622,598.386,518.509,582.356,518.509"/>
			<path fill="#D2D6DB" d="M476.922,406.474c0,0,1.607-24.116,8.039-28.941c6.431-4.823,41.802-3.215,41.802-3.215
				s11.254-27.334,16.077-25.725c4.825,1.609,3.218,6.432,3.218,6.432l-14.473,33.763l-41.801,16.079L476.922,406.474z"/>
			<path fill="#D2D6DB" d="M135.51,406.474c0,0-1.607-24.116-8.039-28.941c-6.431-4.823-41.803-3.215-41.803-3.215
				s-11.254-27.334-16.08-25.725c-4.821,1.609-3.214,6.432-3.214,6.432l14.47,33.763l41.802,16.079L135.51,406.474z"/>
			<polygon fill="#7C8088" points="242.452,639.756 233.658,469.444 319.408,469.444 317.209,639.756 			"/>
			<path fill="#7C8088" d="M110.529,402.216l21.987,96.361c0,0,4.396,15.687,24.186,15.687l90.148,8.965l-1.099-53.784h-84.652
				l-26.384-73.951L110.529,402.216z"/>
			<polygon fill="#7C8088" points="369.979,639.756 378.774,469.444 315.011,469.444 317.21,639.756 			"/>
			<path fill="#7C8088" d="M501.903,402.216l-21.987,96.361c0,0-4.397,15.687-24.188,15.687l-90.146,8.965l1.101-53.784h84.65
				l26.384-73.951L501.903,402.216z"/>
			<g>
				<defs>
					<rect id="SVGID_1_" x="132.429" y="498.195" width="114.421" height="25.033"/>
				</defs>
				<clipPath id="SVGID_2_">
					<use xlink:href="#SVGID_1_"  overflow="visible"/>
				</clipPath>
				<path clip-path="url(#SVGID_2_)" fill="#7C8088" d="M132.429,498.195l0.087,0.382c0,0,4.396,15.687,24.186,15.687l90.148,8.965
					l-0.512-25.033H132.429z"/>
			</g>
			<g>
				<defs>
					<rect id="SVGID_3_" x="365.581" y="498.195" width="114.422" height="25.033"/>
				</defs>
				<clipPath id="SVGID_4_">
					<use xlink:href="#SVGID_3_"  overflow="visible"/>
				</clipPath>
				<path clip-path="url(#SVGID_4_)" fill="#7C8088" d="M366.093,498.195l-0.512,25.033l90.147-8.965
					c19.789,0,24.187-15.687,24.187-15.687l0.088-0.382H366.093z"/>
			</g>
			<path fill="#7C8088" d="M369.784,641.143h33.017l44.666-56.78c0,0,9.435-13.28-3.004-28.67l-49.707-75.739l-41.133,34.669
				l53.22,65.829L369.784,641.143z"/>
			<path fill="#7C8088" d="M232.933,641.143h-33.02l-44.667-56.78c0,0-9.433-13.28,3.008-28.67l49.705-75.739l41.135,34.669
				l-53.222,65.829L232.933,641.143z"/>
			<g>
				<defs>
					<rect id="SVGID_5_" x="353.623" y="504.464" width="75.463" height="136.68"/>
				</defs>
				<clipPath id="SVGID_6_">
					<use xlink:href="#SVGID_5_"  overflow="visible"/>
				</clipPath>
				<path clip-path="url(#SVGID_6_)" fill="#7C8088" d="M369.784,641.143h8.589c20.724-20.604,30.229-44.1,50.71-64.942
					l-63.406-71.737l-12.054,10.159l53.22,65.829L369.784,641.143z"/>
			</g>
			<g>
				<defs>
					<rect id="SVGID_7_" x="179.308" y="506.929" width="69.785" height="134.214"/>
				</defs>
				<clipPath id="SVGID_8_">
					<use xlink:href="#SVGID_7_"  overflow="visible"/>
				</clipPath>
				<path clip-path="url(#SVGID_8_)" fill="#7C8088" d="M239.962,506.929c-22.096,21.899-38.684,47.923-60.655,69.949
					c10.037,13.528,13.252,21.432,21.197,32.456c7.655,10.623,15.316,21.243,23.052,31.809h9.377l-37.061-60.691l53.22-65.829
					L239.962,506.929z"/>
			</g>
			<rect x="292.339" y="438.516" fill="#D2D6DB" width="27.756" height="43.022"/>
			<polygon fill="#7C8088" points="320.095,481.539 292.339,445.457 320.095,438.516 			"/>
			<path fill="#FCB8A5" d="M336.749,446.844H271.52c-13.74,0-24.982-11.24-24.982-24.98v-84.659
				c0-13.739,11.243-24.981,24.982-24.981h65.229c13.738,0,24.98,11.242,24.98,24.981v84.659
				C361.73,435.603,350.488,446.844,336.749,446.844"/>
			<path fill="#D2D6DB" d="M336.749,446.844H271.52c-13.74,0-24.982-11.24-24.982-24.98v-84.659
				c0-13.739,11.243-24.981,24.982-24.981h65.229c13.738,0,24.98,11.242,24.98,24.981v84.659
				C361.73,435.603,350.488,446.844,336.749,446.844"/>
			<path fill="none" stroke="#626165" stroke-width="3" stroke-linecap="round" stroke-linejoin="round" stroke-miterlimit="10" d="
				M320.095,408.331c0,9.581-7.767,13.185-17.348,13.185c-9.582,0-17.349-3.604-17.349-13.185"/>
			<path fill="#FCB8A5" d="M325.647,481.539c0,7.667-8.701,13.881-19.43,13.881c-10.732,0-19.431-6.214-19.431-13.881
				c0-7.664,8.699-13.878,19.431-13.878C316.946,467.661,325.647,473.875,325.647,481.539"/>
			<rect x="276.378" y="602.283" fill="#626165" width="59.677" height="26.369"/>
			<path fill="#FFFFFF" d="M367.739,639.294c-1.604-8.322-12.104-14.806-24.744-14.806h-73.557
				c-12.641,0-23.141,6.483-24.745,14.806H367.739z"/>
			<path fill="#FFFFFF" d="M374.22,607.835H238.211c-13.739,0-24.981-11.241-24.981-24.982v-98.537
				c0-13.739,11.242-24.98,24.981-24.98H374.22c13.74,0,24.982,11.241,24.982,24.98v98.537
				C399.202,596.594,387.96,607.835,374.22,607.835"/>
			<g>
				<defs>
					<rect id="SVGID_9_" x="229.787" y="464.457" width="169.414" height="143.378"/>
				</defs>
				<clipPath id="SVGID_10_">
					<use xlink:href="#SVGID_9_"  overflow="visible"/>
				</clipPath>
				<path clip-path="url(#SVGID_10_)" fill="#626165" d="M389.282,464.456c-14.812,13.795-30.741,26.578-45.804,40.041
					c-18.924,16.913-37.713,33.974-56.604,50.922c-18.53,16.626-37.395,32.876-55.747,49.696c-0.448,0.41-0.894,0.817-1.339,1.226
					c2.633,0.959,5.467,1.495,8.423,1.495H374.22c13.74,0,24.982-11.242,24.982-24.979v-98.538
					C399.202,476.229,395.288,469.029,389.282,464.456"/>
			</g>
			<path fill="#626165" d="M356.84,323.325c0,0-100.586,38.86-124.181,5.551c-26.334-37.178,1.388-52.738,8.25-55.514
				c6.727-2.721,26.753-8.328,38.643,16.654c0,0-7.43-18.042,8.918-22.206c16.35-4.164,29.726,24.982,29.726,24.982
				s20.808-13.879,37.157-4.164c16.35,9.715,11.89,31.921,11.89,36.084c0,4.163-6.316,39.207-6.316,39.207L356.84,323.325z"/>
			<g>
				<defs>
					<rect id="SVGID_11_" x="229.335" y="288.629" width="46.348" height="47.665"/>
				</defs>
				<clipPath id="SVGID_12_">
					<use xlink:href="#SVGID_11_"  overflow="visible"/>
				</clipPath>
				<path clip-path="url(#SVGID_12_)" fill="#FCFCFC" d="M229.884,288.629c0,0-2.775,15.267,4.164,27.757
					c6.939,12.49,20.817,22.206,41.636,19.43C275.683,335.816,235.435,341.367,229.884,288.629"/>
			</g>
			<g>
				<defs>
					<rect id="SVGID_13_" x="283.462" y="300.009" width="26.917" height="27.681"/>
				</defs>
				<clipPath id="SVGID_14_">
					<use xlink:href="#SVGID_13_"  overflow="visible"/>
				</clipPath>
				<path clip-path="url(#SVGID_14_)" fill="#FCFCFC" d="M283.78,300.008c0,0-1.612,8.868,2.419,16.121
					c4.029,7.254,12.089,12.896,24.181,11.285C310.38,327.414,287.004,330.635,283.78,300.008"/>
			</g>
			<g>
				<defs>
					<rect id="SVGID_15_" x="318.157" y="301.514" width="18.59" height="19.119"/>
				</defs>
				<clipPath id="SVGID_16_">
					<use xlink:href="#SVGID_15_"  overflow="visible"/>
				</clipPath>
				<path clip-path="url(#SVGID_16_)" fill="#FCFCFC" d="M318.378,301.514c0,0-1.113,6.123,1.669,11.133
					c2.784,5.01,8.351,8.908,16.702,7.795C336.749,320.442,320.603,322.668,318.378,301.514"/>
			</g>
			
				<circle fill="none" stroke="#7C8088" stroke-width="3" stroke-linecap="round" stroke-linejoin="round" stroke-miterlimit="10" cx="270.541" cy="358.715" r="26.084"/>
			
				<circle fill="none" stroke="#7C8088" stroke-width="3" stroke-linecap="round" stroke-linejoin="round" stroke-miterlimit="10" cx="337.81" cy="358.715" r="26.083"/>
			<path fill="#626165" d="M304.828,386.472L304.828,386.472c-2.671,0-4.858-2.186-4.858-4.857v-31.921
				c0-2.671,2.187-4.857,4.858-4.857c2.672,0,4.857,2.186,4.857,4.857v31.921C309.685,384.286,307.5,386.472,304.828,386.472"/>
			<g>
				<path fill="#7C8088" d="M296.501,361.491c0-3.831,3.416-6.939,7.633-6.939c4.216,0,7.632,3.108,7.632,6.939"/>
				<path fill="#7C8088" d="M311.766,362.991c-0.828,0-1.5-0.671-1.5-1.5c0-2.999-2.751-5.439-6.132-5.439
					c-3.382,0-6.133,2.44-6.133,5.439c0,0.829-0.671,1.5-1.5,1.5s-1.5-0.671-1.5-1.5c0-4.653,4.097-8.439,9.133-8.439
					c5.035,0,9.132,3.786,9.132,8.439C313.266,362.32,312.594,362.991,311.766,362.991z"/>
			</g>
			<path fill="#7C8088" d="M277.071,373.288c0,3.065-2.485,5.552-5.552,5.552c-3.065,0-5.551-2.486-5.551-5.552
				c0-3.066,2.486-5.551,5.551-5.551C274.586,367.737,277.071,370.222,277.071,373.288"/>
			<path fill="#7C8088" d="M345.076,373.288c0,3.065-2.485,5.552-5.552,5.552s-5.552-2.486-5.552-5.552
				c0-3.066,2.485-5.551,5.552-5.551S345.076,370.222,345.076,373.288"/>
			<path fill="#7C8088" d="M245.151,358.022c0,1.532-1.246,2.776-2.776,2.776c-1.533,0-2.776-1.244-2.776-2.776
				c0-1.533,1.243-2.776,2.776-2.776C243.906,355.246,245.151,356.489,245.151,358.022"/>
			<path fill="#7C8088" d="M368.669,358.029c0,1.517-1.229,2.746-2.748,2.746c-1.514,0-2.744-1.229-2.744-2.746
				c0-1.517,1.23-2.747,2.744-2.747C367.44,355.282,368.669,356.512,368.669,358.029"/>
			<rect x="23.094" y="234.987" fill="#626165" width="159.603" height="96.665"/>
			<rect x="23.094" y="234.986" fill="#D2D6DB" width="159.603" height="17.571"/>
			
				<line fill="none" stroke="#FFFFFF" stroke-width="2" stroke-miterlimit="10" x1="34.198" y1="265.035" x2="168.818" y2="319.161"/>
			<line fill="none" stroke="#FFFFFF" stroke-width="2" stroke-miterlimit="10" x1="168.24" y1="263.64" x2="34.775" y2="320.558"/>
			<path fill="#E83666" d="M175.757,242.83c0,1.532-1.243,2.775-2.775,2.775c-1.532,0-2.775-1.243-2.775-2.775
				s1.243-2.776,2.775-2.776C174.514,240.054,175.757,241.298,175.757,242.83"/>
			<path fill="#7CB642" d="M167.43,242.83c0,1.532-1.243,2.775-2.776,2.775c-1.531,0-2.775-1.243-2.775-2.775
				s1.244-2.776,2.775-2.776C166.187,240.054,167.43,241.298,167.43,242.83"/>
			<path fill="#FEC448" d="M159.104,242.83c0,1.532-1.244,2.775-2.776,2.775s-2.775-1.243-2.775-2.775s1.243-2.776,2.775-2.776
				S159.104,241.298,159.104,242.83"/>
			<path fill="#626165" d="M525.498,313.611h-76.334c-5.344,0-9.715-4.372-9.715-9.715V255.32c0-5.343,4.371-9.715,9.715-9.715
				h76.334c5.342,0,9.713,4.372,9.713,9.715v48.575C535.211,309.239,530.84,313.611,525.498,313.611"/>
		</g>
		<g>
			<path fill="#FCFCFC" d="M461.53,279.569l16.426-8.46v2.443l-13.841,6.938v0.07l13.841,6.938v2.443l-16.426-8.46V279.569z"/>
			<path fill="#FCFCFC" d="M480.252,291.358l9.877-25.666h2.406l-9.912,25.666H480.252z"/>
			<path fill="#FCFCFC" d="M511.19,281.516l-16.426,8.425v-2.443l13.947-6.938v-0.07l-13.947-6.938v-2.443l16.426,8.425V281.516z"/>
		</g>
		<g>
			<path fill="#FFFFFF" d="M354.791,195.643c0,24.527-28.584,44.411-63.842,44.411c-35.26,0-63.841-19.884-63.841-44.411
				c0-24.528,28.582-44.411,63.841-44.411C326.207,151.232,354.791,171.115,354.791,195.643"/>
			<polygon fill="#FFFFFF" points="307.604,219.236 328.422,269.198 329.81,202.582 			"/>
		</g>
		<g>
			<path fill="#626165" d="M253.89,204.502v-20.029h4.044v7.883h7.924v-7.883h4.044v20.029h-4.044v-8.757h-7.924v8.757H253.89z"/>
			<path fill="#626165" d="M278.592,204.502v-16.641h-5.943v-3.388h15.917v3.388h-5.929v16.641H278.592z"/>
			<path fill="#626165" d="M291.12,204.502v-20.029h6.053l3.634,13.662l3.593-13.662h6.066v20.029h-3.758v-15.766l-3.975,15.766
				h-3.894l-3.962-15.766v15.766H291.12z"/>
			<path fill="#626165" d="M314.591,204.502v-19.865h4.045v16.491h10.055v3.375H314.591z"/>
		</g>
		<g>
			<path fill="#626165" d="M412.225,373.316l-3.785,0.683c-0.127-0.756-0.416-1.325-0.867-1.708
				c-0.451-0.382-1.036-0.574-1.756-0.574c-0.956,0-1.719,0.33-2.288,0.99c-0.569,0.661-0.854,1.765-0.854,3.313
				c0,1.721,0.289,2.938,0.868,3.648c0.578,0.71,1.354,1.065,2.329,1.065c0.729,0,1.325-0.207,1.79-0.622
				c0.464-0.415,0.792-1.127,0.983-2.138l3.771,0.642c-0.392,1.73-1.143,3.038-2.254,3.921c-1.111,0.884-2.601,1.326-4.468,1.326
				c-2.122,0-3.813-0.67-5.075-2.009s-1.893-3.192-1.893-5.561c0-2.395,0.633-4.26,1.899-5.595c1.266-1.334,2.979-2.001,5.137-2.001
				c1.767,0,3.172,0.38,4.215,1.141C411.02,370.599,411.769,371.759,412.225,373.316z"/>
			<path fill="#626165" d="M413.782,379.396l3.853-0.587c0.164,0.747,0.496,1.314,0.997,1.701c0.501,0.387,1.202,0.581,2.104,0.581
				c0.992,0,1.739-0.182,2.24-0.546c0.337-0.255,0.506-0.596,0.506-1.024c0-0.292-0.092-0.533-0.273-0.724
				c-0.191-0.182-0.62-0.351-1.284-0.506c-3.097-0.683-5.06-1.307-5.889-1.872c-1.147-0.783-1.722-1.872-1.722-3.265
				c0-1.257,0.496-2.313,1.489-3.17c0.993-0.856,2.532-1.284,4.618-1.284c1.985,0,3.461,0.324,4.427,0.97
				c0.965,0.647,1.63,1.603,1.994,2.869l-3.62,0.669c-0.155-0.565-0.449-0.998-0.882-1.298c-0.433-0.301-1.05-0.451-1.851-0.451
				c-1.012,0-1.735,0.142-2.173,0.424c-0.291,0.2-0.437,0.46-0.437,0.779c0,0.273,0.127,0.505,0.382,0.697
				c0.347,0.255,1.542,0.615,3.587,1.079c2.044,0.464,3.472,1.034,4.283,1.708c0.801,0.683,1.202,1.635,1.202,2.855
				c0,1.33-0.556,2.473-1.667,3.43c-1.111,0.956-2.755,1.435-4.932,1.435c-1.977,0-3.541-0.401-4.693-1.203
				C414.891,381.86,414.137,380.771,413.782,379.396z"/>
			<path fill="#626165" d="M429.344,379.396l3.853-0.587c0.164,0.747,0.496,1.314,0.997,1.701c0.501,0.387,1.202,0.581,2.104,0.581
				c0.992,0,1.739-0.182,2.24-0.546c0.337-0.255,0.506-0.596,0.506-1.024c0-0.292-0.092-0.533-0.273-0.724
				c-0.191-0.182-0.62-0.351-1.284-0.506c-3.097-0.683-5.06-1.307-5.889-1.872c-1.147-0.783-1.722-1.872-1.722-3.265
				c0-1.257,0.496-2.313,1.489-3.17c0.993-0.856,2.532-1.284,4.618-1.284c1.985,0,3.461,0.324,4.427,0.97
				c0.965,0.647,1.63,1.603,1.994,2.869l-3.62,0.669c-0.155-0.565-0.449-0.998-0.882-1.298c-0.433-0.301-1.05-0.451-1.851-0.451
				c-1.012,0-1.735,0.142-2.173,0.424c-0.291,0.2-0.437,0.46-0.437,0.779c0,0.273,0.127,0.505,0.382,0.697
				c0.347,0.255,1.542,0.615,3.587,1.079c2.044,0.464,3.472,1.034,4.283,1.708c0.801,0.683,1.202,1.635,1.202,2.855
				c0,1.33-0.556,2.473-1.667,3.43c-1.111,0.956-2.755,1.435-4.932,1.435c-1.977,0-3.541-0.401-4.693-1.203
				C430.452,381.86,429.698,380.771,429.344,379.396z"/>
		</g>
		<g>
			<path fill="#FFFFFF" d="M161.64,381.651c2.208,0,2.519-1.213,2.519-2.301c0-0.871-0.125-1.742-0.249-2.612
				c-0.124-0.871-0.249-1.71-0.249-2.581c0-2.861,1.866-4.074,4.509-4.074h0.653v1.71h-0.56c-1.835,0-2.457,0.995-2.457,2.674
				c0,0.715,0.093,1.461,0.218,2.208c0.125,0.777,0.218,1.524,0.218,2.363c0.031,1.99-0.84,2.985-2.239,3.358v0.063
				c1.399,0.342,2.271,1.399,2.239,3.39c0,0.839-0.093,1.617-0.218,2.363c-0.125,0.777-0.218,1.493-0.218,2.239
				c0,1.742,0.715,2.706,2.457,2.706h0.56v1.71h-0.653c-2.581,0-4.509-1.12-4.509-4.26c0-0.84,0.125-1.71,0.249-2.55
				c0.125-0.839,0.249-1.679,0.249-2.519c0-0.964-0.311-2.301-2.519-2.301V381.651z"/>
		</g>
		<g>
			<path fill="#FFFFFF" d="M202.533,383.237c-2.208,0-2.519,1.337-2.519,2.301c0,0.839,0.125,1.679,0.249,2.519
				c0.125,0.84,0.249,1.71,0.249,2.55c0,3.141-1.959,4.26-4.509,4.26h-0.653v-1.71h0.529c1.741-0.031,2.488-0.964,2.488-2.706
				c0-0.746-0.125-1.461-0.218-2.239c-0.125-0.747-0.249-1.524-0.249-2.363c0-1.99,0.871-3.048,2.239-3.39v-0.063
				c-1.368-0.373-2.239-1.368-2.239-3.358c0-0.839,0.124-1.586,0.249-2.363c0.093-0.747,0.218-1.493,0.218-2.208
				c0-1.679-0.653-2.643-2.457-2.674h-0.56v-1.71h0.622c2.643,0,4.54,1.213,4.54,4.074c0,0.871-0.124,1.71-0.249,2.581
				s-0.249,1.742-0.249,2.612c0,1.088,0.311,2.301,2.519,2.301V383.237z"/>
		</g>
		<g>
		</g>
		<g>
			<path fill="#FFFFFF" d="M418.596,171.883l1.826,7.02c0.399,1.541,0.771,2.967,1.027,4.394h0.085
				c0.314-1.398,0.771-2.882,1.228-4.366l2.254-7.048h2.111l2.14,6.905c0.514,1.655,0.913,3.11,1.228,4.508h0.086
				c0.228-1.398,0.599-2.854,1.056-4.479l1.969-6.934h2.482l-4.451,13.811h-2.283l-2.111-6.591
				c-0.485-1.541-0.885-2.911-1.228-4.537h-0.057c-0.343,1.655-0.771,3.082-1.256,4.565l-2.226,6.563h-2.282l-4.166-13.811H418.596z
				"/>
			<path fill="#FFFFFF" d="M439.221,171.883l1.826,7.02c0.399,1.541,0.771,2.967,1.027,4.394h0.085
				c0.314-1.398,0.771-2.882,1.228-4.366l2.254-7.048h2.111l2.14,6.905c0.514,1.655,0.913,3.11,1.228,4.508h0.086
				c0.228-1.398,0.599-2.854,1.056-4.479l1.969-6.934h2.482l-4.451,13.811h-2.283l-2.111-6.591
				c-0.485-1.541-0.885-2.911-1.228-4.537h-0.057c-0.343,1.655-0.771,3.082-1.256,4.565l-2.226,6.563h-2.282l-4.166-13.811H439.221z
				"/>
			<path fill="#FFFFFF" d="M459.875,171.883l1.826,7.02c0.399,1.541,0.771,2.967,1.027,4.394h0.085
				c0.314-1.398,0.771-2.882,1.228-4.366l2.254-7.048h2.111l2.14,6.905c0.514,1.655,0.913,3.11,1.228,4.508h0.086
				c0.228-1.398,0.599-2.854,1.056-4.479l1.969-6.934h2.482l-4.451,13.811h-2.283l-2.111-6.591
				c-0.485-1.541-0.885-2.911-1.228-4.537h-0.057c-0.343,1.655-0.771,3.082-1.256,4.565l-2.226,6.563h-2.282l-4.166-13.811H459.875z
				"/>
		</g>
		<g>
			
				<line fill="none" stroke="#FFFFFF" stroke-width="2" stroke-miterlimit="10" x1="379.772" y1="220.624" x2="431.123" y2="220.624"/>
			
				<line fill="none" stroke="#FFFFFF" stroke-width="2" stroke-miterlimit="10" x1="395.038" y1="228.951" x2="446.389" y2="228.951"/>
			
				<line fill="none" stroke="#FFFFFF" stroke-width="2" stroke-miterlimit="10" x1="127.182" y1="147.068" x2="178.533" y2="147.068"/>
			
				<line fill="none" stroke="#FFFFFF" stroke-width="2" stroke-miterlimit="10" x1="142.448" y1="155.395" x2="193.8" y2="155.395"/>
			
				<line fill="none" stroke="#FFFFFF" stroke-width="2" stroke-miterlimit="10" x1="467.207" y1="545.382" x2="518.559" y2="545.382"/>
			
				<line fill="none" stroke="#FFFFFF" stroke-width="2" stroke-miterlimit="10" x1="482.473" y1="553.708" x2="533.824" y2="553.708"/>
			
				<line fill="none" stroke="#FFFFFF" stroke-width="2" stroke-miterlimit="10" x1="41.136" y1="498.195" x2="92.486" y2="498.195"/>
			
				<line fill="none" stroke="#FFFFFF" stroke-width="2" stroke-miterlimit="10" x1="56.403" y1="506.521" x2="107.753" y2="506.521"/>
			<rect x="94.947" y="638.62" fill="#626165" width="424.683" height="15.729"/>
		</g>
		<g>
		</g>
	</g>
</g>
</svg>
