<?xml version="1.0" encoding="utf-8"?>
<!-- Generator: Adobe Illustrator 15.0.0, SVG Export Plug-In . SVG Version: 6.00 Build 0)  -->
<!DOCTYPE svg PUBLIC "-//W3C//DTD SVG 1.1//EN" "http://www.w3.org/Graphics/SVG/1.1/DTD/svg11.dtd">
<svg version="1.1" id="Capa_1" xmlns="http://www.w3.org/2000/svg" xmlns:xlink="http://www.w3.org/1999/xlink" x="0px" y="0px"
	 width="1280px" height="640px" viewBox="0 0 1280 640" enable-background="new 0 0 1280 640" xml:space="preserve">
<g>
	<path fill="#60BFB7" d="M1242.174,251.369c0,5.522-4.478,10-10,10H47.826c-5.523,0-10-4.478-10-10V38.761c0-5.523,4.477-10,10-10
		h1184.348c5.522,0,10,4.477,10,10V251.369z"/>
	<g>
		<g>
			<g>
				<path fill="#60BFB7" d="M166.58,474.875L85.348,334.18c-4.083-7.072,1.775-15.742,9.861-14.591l78.47,11.176
					c0.915,0.131,1.844,0.131,2.761,0l78.465-11.176c8.088-1.151,13.946,7.519,9.864,14.591l-81.232,140.695
					C179.77,481.403,170.349,481.403,166.58,474.875"/>
				<path fill="#2EA393" d="M173.677,330.765l-78.468-11.176c-8.086-1.151-13.944,7.519-9.859,14.591l81.228,140.695
					c1.884,3.264,5.184,4.896,8.481,4.896V330.861C174.599,330.861,174.138,330.83,173.677,330.765"/>
				<path fill="#467F77" d="M174.869,344.317c-7.037,0-12.74-5.703-12.74-12.74s5.704-12.74,12.74-12.74
					c7.037,0,12.74,5.703,12.74,12.74S181.906,344.317,174.869,344.317"/>
			</g>
			<g>
				<path fill="#2EA393" d="M58.983,562.938v-0.1c0-10.451,8.15-18.251,18.601-18.251c7.7,0,12.901,3.75,15.851,9.101l-9.651,5.65
					c-1.3-2.5-3.15-4.251-6.35-4.251c-3.95,0-6.551,3.45-6.551,7.65v0.101c0,4.55,2.7,7.75,6.551,7.75c3.3,0,5.15-1.8,6.6-4.399
					l9.651,5.45c-2.95,5.2-7.851,9.45-16.551,9.45C67.434,581.089,58.983,573.788,58.983,562.938z"/>
				<path fill="#2EA393" d="M107.534,545.087h11.601l14.75,35.252h-12.701l-1.85-4.7h-12.25l-1.8,4.7h-12.5L107.534,545.087z
					 M116.435,567.338l-3.2-8.5l-3.2,8.5H116.435z"/>
				<path fill="#2EA393" d="M135.333,545.337h11.701v25.001h16.451v10.001h-28.152V545.337z"/>
				<path fill="#2EA393" d="M166.132,545.337h11.701v35.002h-11.701V545.337z"/>
				<path fill="#2EA393" d="M181.932,545.337h13.401c13.901,0,20.852,6.851,20.852,17.201v0.1c0,10.351-7.101,17.701-21.251,17.701
					h-13.001V545.337z M195.583,570.139c5.351,0,8.801-2.2,8.801-7.251v-0.1c0-5.051-3.45-7.251-8.801-7.251h-1.95v14.602H195.583z"
					/>
				<path fill="#2EA393" d="M229.083,545.087h11.601l14.75,35.252h-12.701l-1.85-4.7h-12.25l-1.8,4.7h-12.5L229.083,545.087z
					 M237.984,567.338l-3.2-8.5l-3.2,8.5H237.984z"/>
				<path fill="#2EA393" d="M256.882,545.337h13.401c13.9,0,20.852,6.851,20.852,17.201v0.1c0,10.351-7.101,17.701-21.252,17.701
					h-13.001V545.337z M270.533,570.139c5.351,0,8.801-2.2,8.801-7.251v-0.1c0-5.051-3.45-7.251-8.801-7.251h-1.95v14.602H270.533z"
					/>
			</g>
		</g>
		<g>
			<g>
				<path fill="#60BFB7" d="M621.565,475.036l-81.231-140.695c-4.083-7.072,1.775-15.742,9.861-14.59l78.471,11.176
					c0.915,0.13,1.844,0.13,2.76,0l78.467-11.176c8.088-1.152,13.945,7.518,9.863,14.59l-81.232,140.695
					C634.756,481.565,625.335,481.565,621.565,475.036"/>
				<path fill="#2EA393" d="M628.663,330.927l-78.468-11.176c-8.086-1.152-13.944,7.518-9.859,14.59l81.228,140.695
					c1.885,3.264,5.185,4.896,8.481,4.896v-148.91C629.585,331.022,629.124,330.991,628.663,330.927"/>
				<path fill="#467F77" d="M629.854,344.479c-7.036,0-12.74-5.703-12.74-12.74s5.704-12.74,12.74-12.74s12.739,5.703,12.739,12.74
					S636.891,344.479,629.854,344.479"/>
			</g>
			<g>
				<path fill="#2EA393" d="M481.87,545.289l6.25-7.451c3.801,2.9,8.151,4.101,12.251,4.101c2.101,0,3-0.55,3-1.5v-0.1
					c0-1.001-1.1-1.551-4.85-2.301c-7.851-1.6-14.751-3.85-14.751-11.25v-0.101c0-6.65,5.2-11.801,14.851-11.801
					c6.751,0,11.751,1.601,15.801,4.801l-5.7,7.9c-3.3-2.4-7.25-3.45-10.5-3.45c-1.751,0-2.551,0.6-2.551,1.45v0.1
					c0,0.95,0.95,1.55,4.65,2.25c8.95,1.65,14.951,4.25,14.951,11.301v0.1c0,7.351-6.051,11.852-15.451,11.852
					C492.721,551.189,486.32,549.189,481.87,545.289z"/>
				<path fill="#2EA393" d="M517.97,515.537h29.852v9.601h-18.351v3.55h17.101v8.451h-17.101v3.8h18.601v9.601H517.97V515.537z"/>
				<path fill="#2EA393" d="M549.92,533.138v-0.1c0-10.451,8.25-18.251,19.301-18.251c6,0,10.851,2,14.651,5.3l-6.551,7.9
					c-2.3-1.95-4.851-3.05-7.751-3.05c-4.55,0-7.85,3.5-7.85,8.251v0.1c0,4.95,3.45,8.351,8.35,8.351c2.001,0,3.101-0.3,4.001-0.8
					v-3.501h-6.001v-7.5h16.951v16.201c-3.8,3.1-9.101,5.25-15.451,5.25C558.67,551.289,549.92,543.988,549.92,533.138z"/>
				<path fill="#2EA393" d="M588.119,534.838v-19.301h11.901v19.151c0,4.35,2.25,6.2,5.399,6.2c3.15,0,5.4-1.7,5.4-5.95v-19.401
					h11.901v19.051c0,11.951-6.951,16.651-17.401,16.651S588.119,546.438,588.119,534.838z"/>
				<path fill="#2EA393" d="M626.419,515.537h17.102c6.2,0,10.15,1.55,12.601,4c2.101,2.101,3.2,4.7,3.2,8.301v0.1
					c0,5.101-2.65,8.65-6.9,10.701l8.15,11.9h-13.351l-6.601-10.001h-2.5v10.001h-11.701V515.537z M643.17,532.188
					c2.801,0,4.501-1.25,4.501-3.399v-0.101c0-2.25-1.75-3.35-4.45-3.35h-5.101v6.85H643.17z"/>
				<path fill="#2EA393" d="M662.269,515.537h11.701v35.002h-11.701V515.537z"/>
				<path fill="#2EA393" d="M678.068,515.537h13.401c13.9,0,20.852,6.851,20.852,17.201v0.1c0,10.351-7.101,17.701-21.252,17.701
					h-13.001V515.537z M691.72,540.339c5.351,0,8.801-2.2,8.801-7.251v-0.1c0-5.051-3.45-7.251-8.801-7.251h-1.95v14.602H691.72z"/>
				<path fill="#2EA393" d="M725.22,515.287h11.601l14.751,35.252H738.87l-1.85-4.7H724.77l-1.8,4.7h-12.501L725.22,515.287z
					 M734.12,537.538l-3.2-8.5l-3.2,8.5H734.12z"/>
				<path fill="#2EA393" d="M753.019,515.537h13.4c13.901,0,20.852,6.851,20.852,17.201v0.1c0,10.351-7.101,17.701-21.251,17.701
					h-13.001V515.537z M766.669,540.339c5.351,0,8.801-2.2,8.801-7.251v-0.1c0-5.051-3.45-7.251-8.801-7.251h-1.95v14.602H766.669z"
					/>
				<path fill="#2EA393" d="M472.245,575.537h11.701v35.002h-11.701V575.537z"/>
				<path fill="#2EA393" d="M488.045,575.537h10.95l12.451,15.451v-15.451h11.601v35.002h-10.4l-13.001-16.151v16.151h-11.601
					V575.537z"/>
				<path fill="#2EA393" d="M527.045,575.537h13.4c13.901,0,20.852,6.851,20.852,17.201v0.1c0,10.351-7.101,17.701-21.251,17.701
					h-13.001V575.537z M540.695,600.339c5.351,0,8.801-2.2,8.801-7.251v-0.1c0-5.051-3.45-7.251-8.801-7.251h-1.95v14.602H540.695z"
					/>
				<path fill="#2EA393" d="M564.194,594.838v-19.301h11.901v19.151c0,4.35,2.25,6.2,5.399,6.2c3.15,0,5.4-1.7,5.4-5.95v-19.401
					h11.901v19.051c0,11.951-6.951,16.651-17.401,16.651S564.194,606.438,564.194,594.838z"/>
				<path fill="#2EA393" d="M599.595,605.289l6.25-7.451c3.8,2.9,8.15,4.101,12.251,4.101c2.1,0,3-0.55,3-1.5v-0.1
					c0-1.001-1.101-1.551-4.851-2.301c-7.851-1.6-14.751-3.85-14.751-11.25v-0.101c0-6.65,5.2-11.801,14.852-11.801
					c6.75,0,11.75,1.601,15.801,4.801l-5.7,7.9c-3.301-2.4-7.251-3.45-10.501-3.45c-1.75,0-2.55,0.6-2.55,1.45v0.1
					c0,0.95,0.95,1.55,4.65,2.25c8.95,1.65,14.95,4.25,14.95,11.301v0.1c0,7.351-6.05,11.852-15.45,11.852
					C610.445,611.189,604.045,609.189,599.595,605.289z"/>
				<path fill="#2EA393" d="M643.395,585.438h-10.301v-9.9h32.303v9.9h-10.301v25.102h-11.701V585.438z"/>
				<path fill="#2EA393" d="M668.044,575.537h17.101c6.201,0,10.151,1.55,12.602,4c2.1,2.101,3.2,4.7,3.2,8.301v0.1
					c0,5.101-2.65,8.65-6.9,10.701l8.15,11.9h-13.352l-6.6-10.001h-2.501v10.001h-11.7V575.537z M684.795,592.188
					c2.8,0,4.5-1.25,4.5-3.399v-0.101c0-2.25-1.75-3.35-4.45-3.35h-5.101v6.85H684.795z"/>
				<path fill="#2EA393" d="M703.894,575.537h11.701v35.002h-11.701V575.537z"/>
				<path fill="#2EA393" d="M731.894,575.287h11.602l14.75,35.252h-12.7l-1.851-4.7h-12.25l-1.801,4.7h-12.5L731.894,575.287z
					 M740.795,597.538l-3.2-8.5l-3.2,8.5H740.795z"/>
				<path fill="#2EA393" d="M759.692,575.537h11.701v25.001h16.451v10.001h-28.152V575.537z"/>
			</g>
		</g>
		<g>
			<g>
				<path fill="#60BFB7" d="M1075.938,475.198l-81.232-140.695c-4.082-7.072,1.775-15.742,9.861-14.591l78.471,11.177
					c0.916,0.129,1.844,0.129,2.762,0l78.465-11.177c8.088-1.151,13.947,7.519,9.865,14.591l-81.232,140.695
					C1089.127,481.727,1079.707,481.727,1075.938,475.198"/>
				<path fill="#2EA393" d="M1083.035,331.089l-78.469-11.177c-8.086-1.151-13.943,7.519-9.859,14.591l81.229,140.695
					c1.885,3.264,5.184,4.896,8.48,4.896V331.185C1083.957,331.185,1083.496,331.153,1083.035,331.089"/>
				<path fill="#467F77" d="M1084.227,344.641c-7.037,0-12.74-5.703-12.74-12.74c0-7.036,5.703-12.739,12.74-12.739
					s12.74,5.703,12.74,12.739C1096.967,338.938,1091.264,344.641,1084.227,344.641"/>
			</g>
			<g>
				<path fill="#2EA393" d="M1001.966,515.537h12.201l7.5,12.301l7.501-12.301h12.2v35.002h-11.65v-17.351l-8.051,12.45h-0.199
					l-8.051-12.45v17.351h-11.451V515.537z"/>
				<path fill="#2EA393" d="M1045.366,515.537h29.852v9.601h-18.351v3.55h17.101v8.451h-17.101v3.8h18.601v9.601h-30.102V515.537z"
					/>
				<path fill="#2EA393" d="M1078.615,515.537h13.401c13.9,0,20.852,6.851,20.852,17.201v0.1c0,10.351-7.101,17.701-21.252,17.701
					h-13.001V515.537z M1092.267,540.339c5.351,0,8.801-2.2,8.801-7.251v-0.1c0-5.051-3.45-7.251-8.801-7.251h-1.95v14.602H1092.267
					z"/>
				<path fill="#2EA393" d="M1116.165,515.537h11.701v35.002h-11.701V515.537z"/>
				<path fill="#2EA393" d="M1131.165,533.138v-0.1c0-10.15,8.351-18.251,19.15-18.251c10.801,0,19.052,8,19.052,18.15v0.101
					c0,10.15-8.351,18.251-19.151,18.251S1131.165,543.289,1131.165,533.138z M1157.566,533.138v-0.1c0-4.15-2.851-7.9-7.351-7.9
					c-4.45,0-7.25,3.7-7.25,7.8v0.101c0,4.15,2.85,7.9,7.35,7.9C1154.767,540.938,1157.566,537.238,1157.566,533.138z"/>
				<path fill="#2EA393" d="M962.567,575.287h11.601l14.751,35.252h-12.701l-1.85-4.7h-12.251l-1.8,4.7h-12.501L962.567,575.287z
					 M971.468,597.538l-3.2-8.5l-3.2,8.5H971.468z"/>
				<path fill="#2EA393" d="M990.366,575.537h12.2l7.501,12.301l7.5-12.301h12.201v35.002h-11.65v-17.351l-8.051,12.45h-0.2
					l-8.051-12.45v17.351h-11.45V575.537z"/>
				<path fill="#2EA393" d="M1033.766,575.537h19.602c4.851,0,7.9,1.1,9.95,3.15c1.251,1.25,2.15,3.05,2.15,5.45v0.1
					c0,4.15-2.5,6.7-6.25,8.001c4.5,1.3,7.4,3.7,7.4,8.5v0.101c0,5.6-4.601,9.7-13.451,9.7h-19.401V575.537z M1050.267,589.288
					c2.501,0,3.7-0.851,3.7-2.4v-0.1c0-1.551-1.25-2.4-3.75-2.4h-5.05v4.9H1050.267z M1051.017,601.688
					c2.551,0,3.851-1.05,3.851-2.55v-0.101c0-1.5-1.25-2.55-3.8-2.55h-5.9v5.2H1051.017z"/>
				<path fill="#2EA393" d="M1069.266,575.537h11.7v35.002h-11.7V575.537z"/>
				<path fill="#2EA393" d="M1085.065,575.537h29.852v9.601h-18.351v3.55h17.101v8.451h-17.101v3.8h18.601v9.601h-30.102V575.537z"
					/>
				<path fill="#2EA393" d="M1118.314,575.537h10.951l12.45,15.451v-15.451h11.602v35.002h-10.401l-13-16.151v16.151h-11.602
					V575.537z"/>
				<path fill="#2EA393" d="M1166.266,585.438h-10.301v-9.9h32.302v9.9h-10.301v25.102h-11.7V585.438z"/>
				<path fill="#2EA393" d="M1190.914,575.537h29.853v9.601h-18.352v3.55h17.102v8.451h-17.102v3.8h18.602v9.601h-30.103V575.537z"
					/>
			</g>
		</g>
	</g>
	<g>
		<path fill="#FFFFFF" d="M181.282,187.204l21.5-25.628c13.072,9.977,28.035,14.104,42.14,14.104c7.224,0,10.319-1.893,10.319-5.16
			v-0.344c0-3.44-3.784-5.332-16.684-7.912c-27.004-5.504-50.739-13.244-50.739-38.699v-0.344c0-22.876,17.888-40.592,51.083-40.592
			c23.22,0,40.42,5.504,54.352,16.512l-19.607,27.176c-11.353-8.256-24.94-11.868-36.12-11.868c-6.02,0-8.771,2.064-8.771,4.988
			v0.344c0,3.268,3.268,5.332,15.996,7.74c30.787,5.676,51.427,14.619,51.427,38.871v0.344c0,25.284-20.812,40.764-53.147,40.764
			C218.606,207.5,196.591,200.62,181.282,187.204z"/>
		<path fill="#FFFFFF" d="M344.852,84.006h39.903l50.739,121.258h-43.688l-6.364-16.168h-42.139l-6.192,16.168h-42.999
			L344.852,84.006z M375.467,160.545l-11.008-29.24l-11.008,29.24H375.467z"/>
		<path fill="#FFFFFF" d="M428.787,187.204l21.5-25.628c13.071,9.977,28.035,14.104,42.139,14.104c7.224,0,10.319-1.893,10.319-5.16
			v-0.344c0-3.44-3.783-5.332-16.683-7.912c-27.004-5.504-50.739-13.244-50.739-38.699v-0.344c0-22.876,17.888-40.592,51.083-40.592
			c23.22,0,40.419,5.504,54.351,16.512l-19.607,27.176c-11.352-8.256-24.939-11.868-36.119-11.868c-6.021,0-8.772,2.064-8.772,4.988
			v0.344c0,3.268,3.269,5.332,15.996,7.74c30.787,5.676,51.427,14.619,51.427,38.871v0.344c0,25.284-20.812,40.764-53.146,40.764
			C466.11,207.5,444.095,200.62,428.787,187.204z"/>
		<path fill="#FFFFFF" d="M553.313,84.866h40.247v120.397h-40.247V84.866z"/>
		<path fill="#FFFFFF" d="M597.688,187.204l21.499-25.628c13.072,9.977,28.036,14.104,42.14,14.104
			c7.224,0,10.319-1.893,10.319-5.16v-0.344c0-3.44-3.783-5.332-16.684-7.912c-27.003-5.504-50.738-13.244-50.738-38.699v-0.344
			c0-22.876,17.887-40.592,51.083-40.592c23.22,0,40.419,5.504,54.351,16.512l-19.607,27.176
			c-11.352-8.256-24.939-11.868-36.119-11.868c-6.021,0-8.772,2.064-8.772,4.988v0.344c0,3.268,3.269,5.332,15.996,7.74
			c30.787,5.676,51.427,14.619,51.427,38.871v0.344c0,25.284-20.812,40.764-53.146,40.764
			C635.011,207.5,612.995,200.62,597.688,187.204z"/>
		<path fill="#FFFFFF" d="M719.117,145.409v-0.345c0-34.915,28.724-62.778,65.875-62.778s65.53,27.52,65.53,62.435v0.344
			c0,34.916-28.723,62.779-65.874,62.779S719.117,180.324,719.117,145.409z M809.932,145.409v-0.345
			c0-14.275-9.804-27.175-25.283-27.175c-15.308,0-24.94,12.728-24.94,26.831v0.344c0,14.276,9.805,27.176,25.284,27.176
			C800.3,172.24,809.932,159.513,809.932,145.409z"/>
		<path fill="#FFFFFF" d="M861.532,84.866h54.179c31.992,0,53.835,14.275,53.835,42.827v0.344c0,29.067-22.188,44.547-54.694,44.547
			h-13.072v32.68h-40.247V84.866z M912.615,143.861c10.32,0,17.2-4.645,17.2-13.244v-0.344c0-8.772-6.364-13.244-17.028-13.244
			h-11.008v26.832H912.615z"/>
		<path fill="#FFFFFF" d="M1008.075,84.006h39.904l50.738,121.258h-43.687l-6.364-16.168h-42.14l-6.191,16.168h-42.999
			L1008.075,84.006z M1038.691,160.545l-11.008-29.24l-11.008,29.24H1038.691z"/>
	</g>
</g>
</svg>
